<svg width="16" height="16" viewBox="0 0 16 16" fill="none" xmlns="http://www.w3.org/2000/svg">
  <mask id="mask0" mask-type="alpha" maskUnits="userSpaceOnUse" x="2" y="2" width="12" height="12">
    <path
      d="M3.47251 8.6668H10.9192L7.66585 11.9201C7.40585 12.1801 7.40585 12.6068 7.66585 12.8668C7.92585 13.1268 8.34585 13.1268 8.60585 12.8668L12.9992 8.47347C13.2592 8.21347 13.2592 7.79347 12.9992 7.53347L8.61251 3.13347C8.48796 3.00863 8.31886 2.93848 8.14251 2.93848C7.96617 2.93848 7.79707 3.00863 7.67251 3.13347C7.41251 3.39347 7.41251 3.81347 7.67251 4.07347L10.9192 7.33347H3.47251C3.10585 7.33347 2.80585 7.63347 2.80585 8.00013C2.80585 8.3668 3.10585 8.6668 3.47251 8.6668Z"
      fill="black" />
  </mask>
  <g mask="url(#mask0)">
    <rect width="16" height="16" fill="#09101D" />
  </g>
</svg>
