<svg width="16" height="16" viewBox="0 0 16 16" fill="none" xmlns="http://www.w3.org/2000/svg">
  <mask id="mask0" mask-type="alpha" maskUnits="userSpaceOnUse" x="0" y="2" width="16" height="12">
    <path fill-rule="evenodd" clip-rule="evenodd"
      d="M8 2.6665C10.4267 2.6665 12.4467 4.39317 12.9 6.69317C14.6333 6.81317 16 8.23984 16 9.99984C16 11.8398 14.5067 13.3332 12.6667 13.3332H4C1.79333 13.3332 0 11.5398 0 9.33317C0 7.27317 1.56 5.57317 3.56667 5.35984C4.4 3.75984 6.07333 2.6665 8 2.6665ZM8.23333 11.7665L11.3333 8.6665H9.33333V5.99984H6.66667V8.6665H4.66667L7.76 11.7665C7.89333 11.8998 8.1 11.8998 8.23333 11.7665Z"
      fill="black" />
  </mask>
  <g mask="url(#mask0)">
    <rect width="16" height="16" fill="#09101D" />
  </g>
</svg>
