<svg width="24" height="24" viewBox="0 0 24 24" fill="none" xmlns="http://www.w3.org/2000/svg">
  <path fill-rule="evenodd" clip-rule="evenodd" d="M20.4648 2.09154C20.0743 1.70101 19.4411 1.70101 19.0506 2.09154C18.9516 2.19055 18.8015 2.21467 18.6708 2.16439C17.5979 1.75169 16.3358 1.97794 15.4706 2.84315L4.59661 13.7172C4.44041 13.8734 4.44041 14.1266 4.59662 14.2828L9.68778 19.374C9.84399 19.5302 10.0973 19.5302 10.2535 19.374L21.1274 8.5C21.9926 7.6348 22.2189 6.3726 21.8062 5.29977C21.7559 5.16907 21.78 5.01897 21.879 4.91997C22.2696 4.52944 22.2696 3.89628 21.879 3.50575L20.4648 2.09154ZM19.954 6.27925C20.1103 6.43546 20.1103 6.68872 19.954 6.84493L10.2535 16.5456C10.0973 16.7018 9.84399 16.7018 9.68778 16.5456L7.42504 14.2828C7.26883 14.1266 7.26883 13.8734 7.42504 13.7172L17.1256 4.01651C17.2818 3.8603 17.5351 3.8603 17.6913 4.01651L19.954 6.27925Z" fill="#1672EC"/>
  <path d="M1.67536 22.766C1.37676 22.8475 1.10276 22.5735 1.18421 22.2749L2.94032 15.8367C3.02114 15.5404 3.39192 15.4419 3.60908 15.6591L8.29086 20.3415C8.50801 20.5587 8.40954 20.9295 8.11324 21.0103L1.67536 22.766Z" fill="#1672EC"/>
</svg>
