<svg width="382" height="382" viewBox="0 0 382 382" fill="none" xmlns="http://www.w3.org/2000/svg">
  <path fill-rule="evenodd" clip-rule="evenodd" d="M191 335C270.529 335 335 270.529 335 191C335 111.471 270.529 47 191 47C111.471 47 47 111.471 47 191C47 270.529 111.471 335 191 335ZM191 275C237.392 275 275 237.392 275 191C275 144.608 237.392 107 191 107C144.608 107 107 144.608 107 191C107 237.392 144.608 275 191 275Z" fill="#CECECE" fill-opacity="0.2"/>
  <circle cx="77" cy="191" r="30" fill="#4762EF"/>
  <circle cx="77.0885" cy="196.496" r="30" transform="rotate(-2.26 77.0885 196.496)" fill="#4762EF"/>
  <mask id="mask0" mask-type="alpha" maskUnits="userSpaceOnUse" x="0" y="0" width="382" height="191">
    <rect width="382" height="191" fill="#C4C4C4"/>
  </mask>
  <g mask="url(#mask0)">
    <path fill-rule="evenodd" clip-rule="evenodd" d="M292.823 89.1766C319.829 116.182 335 152.809 335 191H275C275 144.608 237.392 107 191 107C144.608 107 107 144.608 107 191L47 191C47 152.809 62.1714 116.182 89.1766 89.1766C116.182 62.1713 152.809 47 191 47C229.191 47 265.818 62.1714 292.823 89.1766Z" fill="#4762EF"/>
  </g>
  <mask id="mask1" mask-type="alpha" maskUnits="userSpaceOnUse" x="0" y="191" width="382" height="191">
    <rect y="191" width="382" height="191" fill="#C4C4C4"/>
  </mask>
  <g mask="url(#mask1)">
    <path fill-rule="evenodd" clip-rule="evenodd" d="M89.5505 293.196C62.4465 266.29 47.141 229.719 47.001 191.528L107.001 191.308C107.171 237.699 144.916 275.169 191.308 274.999C237.7 274.829 275.17 237.084 274.999 190.692L334.999 190.472C335.139 228.663 320.102 265.345 293.196 292.449C266.29 319.553 229.719 334.859 191.528 334.999C153.337 335.139 116.655 320.102 89.5505 293.196Z" fill="#4762EF"/>
  </g>
  <mask id="mask2" mask-type="alpha" maskUnits="userSpaceOnUse" x="0" y="0" width="382" height="382">
    <rect width="382" height="382" fill="#C4C4C4"/>
  </mask>
  <g mask="url(#mask2)">
    <path d="M222 191C222 208.121 208.121 222 191 222C173.879 222 160 208.121 160 191C160 173.879 173.879 160 191 160C208.121 160 222 173.879 222 191Z" fill="#FFCC4D"/>
    <path fill-rule="evenodd" clip-rule="evenodd" d="M162.136 178.975C162.549 179.387 164.612 180.624 165.024 181.86C165.437 183.095 166.264 190.099 168.74 192.161C171.294 194.283 180.929 193.494 182.773 192.574C186.901 190.516 187.408 184.771 188.138 181.86C188.549 180.212 191.026 180.212 191.026 180.212C191.026 180.212 193.502 180.212 193.916 181.858C194.646 184.771 195.156 190.516 199.281 192.572C201.127 193.494 210.761 194.284 213.318 192.163C215.791 190.101 216.616 183.097 217.03 181.86C217.44 180.625 219.506 179.389 219.918 178.977C220.333 178.566 220.333 176.917 219.918 176.504C219.093 175.681 209.354 174.947 198.867 176.092C196.775 176.322 195.979 176.916 191.024 176.916C186.073 176.916 185.274 176.32 183.183 176.092C172.703 174.945 162.962 175.679 162.136 176.502C161.724 176.914 161.724 178.564 162.136 178.975Z" fill="#292F33"/>
    <path d="M207.077 200.694C206.77 200.417 206.312 200.4 205.983 200.644C205.916 200.694 199.229 205.639 191 205.639C182.792 205.639 176.082 200.694 176.017 200.644C175.688 200.4 175.23 200.421 174.923 200.694C174.618 200.97 174.549 201.425 174.761 201.776C174.983 202.146 180.302 210.806 191 210.806C201.698 210.806 207.018 202.146 207.239 201.776C207.451 201.423 207.384 200.97 207.077 200.694Z" fill="#664500"/>
  </g>
</svg>
